<svg width="18" height="17" viewBox="0 0 18 17" fill="none" xmlns="http://www.w3.org/2000/svg">
<path d="M1.55766 0.461565C1.42393 0.485767 1.2996 0.546783 1.19863 0.637757C1.09766 0.728731 1.02407 0.846058 0.986111 0.976555C0.948154 1.10705 0.947339 1.24555 0.983759 1.37648C1.02018 1.50742 1.09239 1.6256 1.19228 1.71776L15.8077 16.3331C15.8721 16.4127 15.9526 16.4778 16.0439 16.5242C16.1351 16.5707 16.2351 16.5974 16.3374 16.6027C16.4397 16.608 16.5419 16.5918 16.6375 16.555C16.7331 16.5183 16.8198 16.4619 16.8922 16.3895C16.9646 16.317 17.021 16.2302 17.0576 16.1346C17.0943 16.039 17.1105 15.9368 17.1051 15.8345C17.0997 15.7322 17.0729 15.6323 17.0264 15.541C16.9799 15.4498 16.9147 15.3694 16.8351 15.3049L11.423 9.8936V1.42033C11.423 0.495911 10.6155 0.264257 9.98416 0.895642L6.17028 4.64083L2.22047 0.689565C2.14504 0.609224 2.05242 0.546983 1.94953 0.507499C1.84665 0.468016 1.73617 0.452312 1.62635 0.461565C1.60347 0.460488 1.58055 0.460488 1.55766 0.461565ZM2.65382 5.62299C2.25116 5.62299 1.92305 5.95037 1.92305 6.35376V10.7384C1.92305 11.1403 2.25116 11.4691 2.65382 11.4691H5.1662L9.96151 16.1497C10.6923 16.8805 11.423 16.5063 11.423 15.5103V13.6373L3.40724 5.62299H2.65382Z" fill="white"/>
</svg>
