<svg style="width:100%;height:100%" width="26" height="26" viewBox="0 0 26 26" fill="none" xmlns="http://www.w3.org/2000/svg">
<g clip-path="url(#clip0_1570_3480)">
<path d="M2.60711 4.62942L6.63711 8.66664H2.88878C2.50569 8.66664 2.13829 8.81882 1.8674 9.08971C1.59652 9.36059 1.44434 9.72799 1.44434 10.1111V15.8889C1.44434 16.272 1.59652 16.6394 1.8674 16.9102C2.13829 17.1811 2.50569 17.3333 2.88878 17.3333H6.601L11.9527 22.7283C12.0932 22.8583 12.2581 22.9591 12.4379 23.0248C12.6176 23.0905 12.8087 23.1199 12.9999 23.1111C13.1882 23.1111 13.3746 23.0743 13.5488 23.0028C13.8137 22.8939 14.0403 22.7088 14.1997 22.4709C14.3592 22.233 14.4443 21.953 14.4443 21.6666V16.445L18.6982 20.6989C18.5177 20.8072 18.3443 20.9083 18.1566 21.0022C17.9851 21.0884 17.855 21.2392 17.7947 21.4213C17.7344 21.6035 17.749 21.8022 17.8352 21.9736C17.9214 22.145 18.0721 22.2752 18.2543 22.3355C18.4365 22.3957 18.6351 22.3812 18.8066 22.295C19.1312 22.1311 19.447 21.9503 19.7527 21.7533L21.3993 23.4L22.3888 22.3889L3.611 3.61108L2.60711 4.62942ZM12.9999 21.6666L7.41711 16.055C7.27403 15.9355 7.09029 15.876 6.90434 15.8889H2.88878V10.1111H6.96211C7.05767 10.1107 7.1522 10.0913 7.24022 10.0541C7.32824 10.0169 7.408 9.96266 7.47489 9.89442L7.66267 9.70664L12.9999 15.0294V21.6666Z" fill="white"/>
<path d="M17.976 4.83155C19.2348 5.4195 20.3398 6.29181 21.2039 7.37972C22.068 8.46763 22.6676 9.7414 22.9554 11.1006C23.2432 12.4598 23.2114 13.8673 22.8624 15.2121C22.5134 16.5569 21.8568 17.8022 20.9443 18.8499L21.9699 19.8754C23.047 18.6639 23.8265 17.2177 24.2462 15.6518C24.6659 14.086 24.7143 12.4437 24.3875 10.8559C24.0606 9.26806 23.3676 7.77844 22.3636 6.50562C21.3596 5.23281 20.0724 4.21196 18.6043 3.52433C18.5186 3.47992 18.4248 3.45314 18.3286 3.44558C18.2324 3.43802 18.1356 3.44983 18.044 3.48031C17.9524 3.51079 17.8678 3.55932 17.7953 3.62304C17.7228 3.68677 17.6638 3.76438 17.6218 3.85129C17.5798 3.93821 17.5556 4.03266 17.5507 4.12908C17.5458 4.22549 17.5603 4.3219 17.5934 4.41262C17.6264 4.50333 17.6773 4.5865 17.743 4.65722C17.8087 4.72793 17.8879 4.78476 17.976 4.82433V4.83155Z" fill="white"/>
<path d="M16.3871 9.11437C17.0668 9.511 17.6315 10.0779 18.0254 10.7593C18.4192 11.4407 18.6287 12.2129 18.6332 12.9999C18.6332 13.9666 18.3189 14.907 17.7376 15.6794L18.7776 16.7049C19.6222 15.6551 20.0811 14.3473 20.0776 12.9999C20.0729 11.9605 19.7973 10.9402 19.2781 10.0397C18.7588 9.13924 18.0138 8.38967 17.1165 7.86493C17.0343 7.81267 16.9424 7.77758 16.8463 7.76177C16.7502 7.74596 16.6518 7.74976 16.5572 7.77293C16.4626 7.79611 16.3737 7.83818 16.2958 7.89662C16.2178 7.95506 16.1525 8.02866 16.1038 8.11299C16.055 8.19732 16.0239 8.29064 16.0121 8.38733C16.0004 8.48403 16.0083 8.5821 16.0354 8.67565C16.0626 8.76919 16.1084 8.85629 16.17 8.93168C16.2317 9.00708 16.308 9.06922 16.3943 9.11437H16.3871Z" fill="white"/>
<path d="M13.0003 4.33329V10.9416L14.4448 12.3861V4.33329C14.445 4.04701 14.3601 3.76711 14.201 3.52914C14.0418 3.29117 13.8156 3.10586 13.5509 2.99674C13.2862 2.88762 12.9951 2.85961 12.7145 2.91627C12.4338 2.97293 12.1764 3.1117 11.9748 3.31496L8.66699 6.62274L9.68533 7.64107L13.0003 4.33329Z" fill="white"/>
</g>
<defs>
<clipPath id="clip0_1570_3480">
<rect width="26" height="26" fill="white"/>
</clipPath>
</defs>
</svg>
