<svg width="24" height="24" viewBox="0 0 19 19" fill="none" xmlns="http://www.w3.org/2000/svg">
<g clip-path="url(#clip0_1849_2568)">
<path d="M7.25 3C7.44891 3 7.63968 3.07609 7.78033 3.21153C7.92098 3.34698 8 3.53068 8 3.72222V15.2778C8 15.4693 7.92098 15.653 7.78033 15.7885C7.63968 15.9239 7.44891 16 7.25 16H5.75C5.55109 16 5.36032 15.9239 5.21967 15.7885C5.07902 15.653 5 15.4693 5 15.2778V3.72222C5 3.53068 5.07902 3.34698 5.21967 3.21153C5.36032 3.07609 5.55109 3 5.75 3H7.25ZM13.25 3C13.4489 3 13.6397 3.07609 13.7803 3.21153C13.921 3.34698 14 3.53068 14 3.72222V15.2778C14 15.4693 13.921 15.653 13.7803 15.7885C13.6397 15.9239 13.4489 16 13.25 16H11.75C11.5511 16 11.3603 15.9239 11.2197 15.7885C11.079 15.653 11 15.4693 11 15.2778V3.72222C11 3.53068 11.079 3.34698 11.2197 3.21153C11.3603 3.07609 11.5511 3 11.75 3H13.25Z" fill="white"/>
</g>
<defs>
<clipPath id="clip0_1849_2568">
<rect width="19" height="19" fill="white"/>
</clipPath>
</defs>
</svg>
