<svg width="13" height="15" viewBox="0 0 13 15" fill="none" xmlns="http://www.w3.org/2000/svg">
<path d="M1.93602 14.3282C1.70817 14.3278 1.48436 14.268 1.2866 14.1549C0.841289 13.9025 0.564453 13.4127 0.564453 12.8809V2.11921C0.564453 1.58594 0.841289 1.09758 1.2866 0.845241C1.48907 0.72888 1.71908 0.669041 1.95259 0.671978C2.18609 0.674916 2.41453 0.740522 2.614 0.861941L11.8116 6.36749C12.0032 6.48768 12.1613 6.65459 12.2708 6.85256C12.3803 7.05053 12.4378 7.27307 12.4378 7.49932C12.4378 7.72557 12.3803 7.94812 12.2708 8.14609C12.1613 8.34406 12.0032 8.51097 11.8116 8.63116L2.61252 14.1382C2.40838 14.2616 2.17456 14.3273 1.93602 14.3282Z" fill="white"/>
</svg>
