<svg style="width:100%;height:100%" viewBox="0 0 26 26" fill="none" xmlns="http://www.w3.org/2000/svg">
    <path d="M24.375 13C24.3757 13.2759 24.3049 13.5472 24.1697 13.7877C24.0344 14.0281 23.8392 14.2295 23.6031 14.3721L8.97 23.3238C8.72329 23.4749 8.44072 23.5574 8.15149 23.5627C7.86225 23.5681 7.57682 23.4961 7.32469 23.3543C7.07496 23.2147 6.86692 23.0111 6.72198 22.7644C6.57704 22.5177 6.50042 22.2368 6.5 21.9507V4.04932C6.50042 3.7632 6.57704 3.48236 6.72198 3.23567C6.86692 2.98898 7.07496 2.78535 7.32469 2.64572C7.57682 2.50389 7.86225 2.43193 8.15149 2.43729C8.44072 2.44265 8.72329 2.52512 8.97 2.67619L23.6031 11.6279C23.8392 11.7706 24.0344 11.9719 24.1697 12.2124C24.3049 12.4528 24.3757 12.7241 24.375 13Z" fill="white"/>
    </svg>
    