<svg width="13" height="17" viewBox="0 0 13 17" fill="none" xmlns="http://www.w3.org/2000/svg">
<path d="M11.6418 5.9702C11.2921 5.70808 10.8204 5.90622 10.6525 6.30972V6.30972C10.4843 6.71386 10.7011 7.17176 10.9744 7.5137C11.1908 7.78447 11.3201 8.12853 11.3201 8.50371C11.3201 8.87866 11.1895 9.22338 10.9711 9.49508C10.6977 9.8352 10.4834 10.2914 10.6511 10.6943V10.6943C10.8196 11.0992 11.2936 11.2971 11.6435 11.0327C12.409 10.4543 12.9047 9.53725 12.9047 8.50371C12.9076 7.46566 12.411 6.54674 11.6418 5.9702ZM1.23926 4.54043C0.686972 4.54043 0.239258 4.98815 0.239258 5.54043V11.4559C0.239258 12.0081 0.686973 12.4559 1.23926 12.4559H2.99047C3.25569 12.4559 3.51004 12.5612 3.69758 12.7488L7.24172 16.2929C7.87168 16.9229 8.94883 16.4767 8.94883 15.5858V1.41421C8.94883 0.523309 7.87169 0.077142 7.24172 0.707107L3.70129 4.24754C3.51375 4.43507 3.2594 4.54043 2.99418 4.54043H1.23926Z" fill="white"/>
</svg>
