<svg style="width:100%;height:100%" width="26" height="26" viewBox="0 0 26 26" fill="none" xmlns="http://www.w3.org/2000/svg">
<path d="M17.3337 9.20827C18.7777 11.1344 18.7777 14.8654 17.3337 16.7916M20.5837 5.4166C24.904 9.54193 24.93 16.485 20.5837 20.5833M2.16699 16.2055V9.79327C2.16699 9.17143 2.65233 8.6666 3.25033 8.6666H7.13516C7.27852 8.66609 7.42029 8.63655 7.55193 8.57976C7.68356 8.52298 7.80233 8.44012 7.90108 8.33618L11.1511 4.66585C11.8336 3.95518 13.0003 4.45893 13.0003 5.46318V20.5367C13.0003 21.5485 11.8195 22.0479 11.1413 21.3232L7.90216 17.6734C7.80313 17.5665 7.68316 17.4812 7.54972 17.4226C7.41627 17.3641 7.27221 17.3337 7.12649 17.3333H3.25033C2.65233 17.3333 2.16699 16.8284 2.16699 16.2055Z" stroke="white" stroke-width="1.33333" stroke-linecap="round" stroke-linejoin="round"/>
</svg>
